<?xml version="1.0" encoding="UTF-8"?>
<svg xmlns="http://www.w3.org/2000/svg" xmlns:xlink="http://www.w3.org/1999/xlink" viewBox="0 0 24 24" width="24px" height="24px">
<g id="surface40832167">
<path style=" stroke:none;fill-rule:nonzero;fill:rgb(53.333336%,52.549022%,52.549022%);fill-opacity:1;" d="M 1.441406 24 C 0.644531 24 0 23.355469 0 22.558594 L 0 1.441406 C 0 0.644531 0.644531 0 1.441406 0 L 22.558594 0 C 23.355469 0 24 0.644531 24 1.441406 L 24 22.558594 C 24 23.355469 23.355469 24 22.558594 24 Z M 1.441406 24 "/>
<path style=" stroke:none;fill-rule:evenodd;fill:rgb(100%,100%,100%);fill-opacity:1;" d="M 11.199219 4 L 11.199219 11.199219 L 4 11.199219 L 4 12.800781 L 11.199219 12.800781 L 11.199219 20 L 12.800781 20 L 12.800781 12.800781 L 20 12.800781 L 20 11.199219 L 12.800781 11.199219 L 12.800781 4 Z M 11.199219 4 "/>
</g>
</svg>
