<svg width="20" height="21" viewBox="0 0 20 21" fill="none" xmlns="http://www.w3.org/2000/svg">
<g clip-path="url(#clip0)">
<path d="M10 0.319794C4.64844 0.319794 0.3125 4.7569 0.3125 10.2333C0.3125 15.7098 4.64844 20.1469 10 20.1469C15.3516 20.1469 19.6875 15.7098 19.6875 10.2333C19.6875 4.7569 15.3516 0.319794 10 0.319794ZM4.84375 11.8323C4.58594 11.8323 4.375 11.6164 4.375 11.3526V9.11407C4.375 8.85024 4.58594 8.63438 4.84375 8.63438H15.1563C15.4141 8.63438 15.625 8.85024 15.625 9.11407V11.3526C15.625 11.6164 15.4141 11.8323 15.1563 11.8323H4.84375Z" fill="#FF0000" fill-opacity="0.6"/>
</g>
<defs>
<clipPath id="clip0">
<rect width="20" height="20.4667" fill="white"/>
</clipPath>
</defs>
</svg>
