<svg width="249" height="202" viewBox="0 0 249 202" fill="none" xmlns="http://www.w3.org/2000/svg">
<rect y="48" width="249" height="154" rx="74" fill="#CF2500" fill-opacity="0.1"/>
<path d="M178.906 28.911C176.961 33.4632 173.885 38.8949 166.602 42.8608C136.856 59.0539 97.7106 53.4146 80.3704 42.8608C73.501 38.6314 70.0663 33.4632 68.1267 28.911C64.9092 21.3942 66.2982 15.1752 66.2982 15.1752C66.2982 15.1752 77.8247 14.0948 90.7351 17.0923C95.488 18.1822 99.9551 19.7432 103.979 21.7203C106.419 10.623 117.778 3.21489 121.935 0.830074L123.486 0L125.037 0.830074C129.194 3.21489 140.554 10.623 142.993 21.7203C147.017 19.7434 151.484 18.1825 156.237 17.0923C169.153 14.0948 180.679 15.1785 180.679 15.1785C180.679 15.1785 182.119 21.3942 178.901 28.911H178.906Z" fill="#B1CC33" fill-opacity="0.8"/>
<path d="M94.78 30.2C96.1427 30.2 97.188 30.4613 97.916 30.984C98.6533 31.4973 99.022 32.2673 99.022 33.294C99.022 33.854 98.9193 34.3347 98.714 34.736C98.518 35.128 98.2287 35.45 97.846 35.702C97.4727 35.9447 97.0153 36.122 96.474 36.234C95.9327 36.346 95.3213 36.402 94.64 36.402H93.562V40H92.204V30.438C92.5867 30.3447 93.0113 30.284 93.478 30.256C93.954 30.2187 94.388 30.2 94.78 30.2ZM94.892 31.39C94.3133 31.39 93.87 31.404 93.562 31.432V35.24H94.584C95.0507 35.24 95.4707 35.212 95.844 35.156C96.2173 35.0907 96.53 34.988 96.782 34.848C97.0433 34.6987 97.244 34.498 97.384 34.246C97.524 33.994 97.594 33.672 97.594 33.28C97.594 32.9067 97.5193 32.5987 97.37 32.356C97.23 32.1133 97.034 31.922 96.782 31.782C96.5393 31.6327 96.2547 31.53 95.928 31.474C95.6013 31.418 95.256 31.39 94.892 31.39ZM106.525 36.36C106.525 36.9387 106.441 37.4613 106.273 37.928C106.105 38.3947 105.867 38.796 105.559 39.132C105.26 39.468 104.901 39.7293 104.481 39.916C104.061 40.0933 103.603 40.182 103.109 40.182C102.614 40.182 102.157 40.0933 101.737 39.916C101.317 39.7293 100.953 39.468 100.645 39.132C100.346 38.796 100.113 38.3947 99.9448 37.928C99.7768 37.4613 99.6928 36.9387 99.6928 36.36C99.6928 35.7907 99.7768 35.2727 99.9448 34.806C100.113 34.33 100.346 33.924 100.645 33.588C100.953 33.252 101.317 32.9953 101.737 32.818C102.157 32.6313 102.614 32.538 103.109 32.538C103.603 32.538 104.061 32.6313 104.481 32.818C104.901 32.9953 105.26 33.252 105.559 33.588C105.867 33.924 106.105 34.33 106.273 34.806C106.441 35.2727 106.525 35.7907 106.525 36.36ZM105.167 36.36C105.167 35.5387 104.98 34.89 104.607 34.414C104.243 33.9287 103.743 33.686 103.109 33.686C102.474 33.686 101.97 33.9287 101.597 34.414C101.233 34.89 101.051 35.5387 101.051 36.36C101.051 37.1813 101.233 37.8347 101.597 38.32C101.97 38.796 102.474 39.034 103.109 39.034C103.743 39.034 104.243 38.796 104.607 38.32C104.98 37.8347 105.167 37.1813 105.167 36.36ZM108.119 32.93C108.417 32.8553 108.809 32.776 109.295 32.692C109.789 32.608 110.359 32.566 111.003 32.566C111.469 32.566 111.861 32.6313 112.179 32.762C112.496 32.8833 112.762 33.0653 112.977 33.308C113.042 33.2613 113.145 33.196 113.285 33.112C113.425 33.028 113.597 32.9487 113.803 32.874C114.008 32.79 114.237 32.72 114.489 32.664C114.741 32.5987 115.011 32.566 115.301 32.566C115.861 32.566 116.318 32.65 116.673 32.818C117.027 32.9767 117.303 33.2053 117.499 33.504C117.704 33.8027 117.839 34.1573 117.905 34.568C117.979 34.9787 118.017 35.4267 118.017 35.912V40H116.715V36.192C116.715 35.7627 116.691 35.394 116.645 35.086C116.607 34.778 116.528 34.5213 116.407 34.316C116.295 34.1107 116.136 33.9613 115.931 33.868C115.735 33.7653 115.478 33.714 115.161 33.714C114.722 33.714 114.358 33.7747 114.069 33.896C113.789 34.008 113.597 34.1107 113.495 34.204C113.569 34.4467 113.625 34.7127 113.663 35.002C113.7 35.2913 113.719 35.5947 113.719 35.912V40H112.417V36.192C112.417 35.7627 112.393 35.394 112.347 35.086C112.3 34.778 112.216 34.5213 112.095 34.316C111.983 34.1107 111.824 33.9613 111.619 33.868C111.423 33.7653 111.171 33.714 110.863 33.714C110.732 33.714 110.592 33.7187 110.443 33.728C110.293 33.7373 110.149 33.7513 110.009 33.77C109.878 33.7793 109.757 33.7933 109.645 33.812C109.533 33.8307 109.458 33.8447 109.421 33.854V40H108.119V32.93ZM126.365 36.36C126.365 36.9387 126.281 37.4613 126.113 37.928C125.945 38.3947 125.707 38.796 125.399 39.132C125.101 39.468 124.741 39.7293 124.321 39.916C123.901 40.0933 123.444 40.182 122.949 40.182C122.455 40.182 121.997 40.0933 121.577 39.916C121.157 39.7293 120.793 39.468 120.485 39.132C120.187 38.796 119.953 38.3947 119.785 37.928C119.617 37.4613 119.533 36.9387 119.533 36.36C119.533 35.7907 119.617 35.2727 119.785 34.806C119.953 34.33 120.187 33.924 120.485 33.588C120.793 33.252 121.157 32.9953 121.577 32.818C121.997 32.6313 122.455 32.538 122.949 32.538C123.444 32.538 123.901 32.6313 124.321 32.818C124.741 32.9953 125.101 33.252 125.399 33.588C125.707 33.924 125.945 34.33 126.113 34.806C126.281 35.2727 126.365 35.7907 126.365 36.36ZM125.007 36.36C125.007 35.5387 124.821 34.89 124.447 34.414C124.083 33.9287 123.584 33.686 122.949 33.686C122.315 33.686 121.811 33.9287 121.437 34.414C121.073 34.89 120.891 35.5387 120.891 36.36C120.891 37.1813 121.073 37.8347 121.437 38.32C121.811 38.796 122.315 39.034 122.949 39.034C123.584 39.034 124.083 38.796 124.447 38.32C124.821 37.8347 125.007 37.1813 125.007 36.36ZM132.663 34.26C132.504 34.1293 132.276 34.0033 131.977 33.882C131.678 33.7607 131.352 33.7 130.997 33.7C130.624 33.7 130.302 33.77 130.031 33.91C129.77 34.0407 129.555 34.2273 129.387 34.47C129.219 34.7033 129.098 34.9833 129.023 35.31C128.948 35.6367 128.911 35.9867 128.911 36.36C128.911 37.2093 129.121 37.8673 129.541 38.334C129.961 38.7913 130.521 39.02 131.221 39.02C131.576 39.02 131.87 39.006 132.103 38.978C132.346 38.9407 132.532 38.9033 132.663 38.866V34.26ZM132.663 29.36L133.965 29.136V39.79C133.666 39.874 133.284 39.958 132.817 40.042C132.35 40.126 131.814 40.168 131.207 40.168C130.647 40.168 130.143 40.0793 129.695 39.902C129.247 39.7247 128.864 39.4727 128.547 39.146C128.23 38.8193 127.982 38.4227 127.805 37.956C127.637 37.48 127.553 36.948 127.553 36.36C127.553 35.8 127.623 35.2867 127.763 34.82C127.912 34.3533 128.127 33.952 128.407 33.616C128.687 33.28 129.028 33.0187 129.429 32.832C129.84 32.6453 130.306 32.552 130.829 32.552C131.249 32.552 131.618 32.608 131.935 32.72C132.262 32.832 132.504 32.9393 132.663 33.042V29.36ZM142.391 36.36C142.391 36.9387 142.307 37.4613 142.139 37.928C141.971 38.3947 141.733 38.796 141.425 39.132C141.126 39.468 140.767 39.7293 140.347 39.916C139.927 40.0933 139.47 40.182 138.975 40.182C138.48 40.182 138.023 40.0933 137.603 39.916C137.183 39.7293 136.819 39.468 136.511 39.132C136.212 38.796 135.979 38.3947 135.811 37.928C135.643 37.4613 135.559 36.9387 135.559 36.36C135.559 35.7907 135.643 35.2727 135.811 34.806C135.979 34.33 136.212 33.924 136.511 33.588C136.819 33.252 137.183 32.9953 137.603 32.818C138.023 32.6313 138.48 32.538 138.975 32.538C139.47 32.538 139.927 32.6313 140.347 32.818C140.767 32.9953 141.126 33.252 141.425 33.588C141.733 33.924 141.971 34.33 142.139 34.806C142.307 35.2727 142.391 35.7907 142.391 36.36ZM141.033 36.36C141.033 35.5387 140.846 34.89 140.473 34.414C140.109 33.9287 139.61 33.686 138.975 33.686C138.34 33.686 137.836 33.9287 137.463 34.414C137.099 34.89 136.917 35.5387 136.917 36.36C136.917 37.1813 137.099 37.8347 137.463 38.32C137.836 38.796 138.34 39.034 138.975 39.034C139.61 39.034 140.109 38.796 140.473 38.32C140.846 37.8347 141.033 37.1813 141.033 36.36ZM146.673 32.566C146.785 32.566 146.911 32.5753 147.051 32.594C147.2 32.6033 147.345 32.622 147.485 32.65C147.625 32.6687 147.751 32.692 147.863 32.72C147.984 32.7387 148.073 32.7573 148.129 32.776L147.905 33.91C147.802 33.8727 147.63 33.8307 147.387 33.784C147.154 33.728 146.85 33.7 146.477 33.7C146.234 33.7 145.992 33.728 145.749 33.784C145.516 33.8307 145.362 33.8633 145.287 33.882V40H143.985V33.028C144.293 32.916 144.676 32.8133 145.133 32.72C145.59 32.6173 146.104 32.566 146.673 32.566ZM155.573 36.36C155.573 36.9387 155.489 37.4613 155.321 37.928C155.153 38.3947 154.915 38.796 154.607 39.132C154.309 39.468 153.949 39.7293 153.529 39.916C153.109 40.0933 152.652 40.182 152.157 40.182C151.663 40.182 151.205 40.0933 150.785 39.916C150.365 39.7293 150.001 39.468 149.693 39.132C149.395 38.796 149.161 38.3947 148.993 37.928C148.825 37.4613 148.741 36.9387 148.741 36.36C148.741 35.7907 148.825 35.2727 148.993 34.806C149.161 34.33 149.395 33.924 149.693 33.588C150.001 33.252 150.365 32.9953 150.785 32.818C151.205 32.6313 151.663 32.538 152.157 32.538C152.652 32.538 153.109 32.6313 153.529 32.818C153.949 32.9953 154.309 33.252 154.607 33.588C154.915 33.924 155.153 34.33 155.321 34.806C155.489 35.2727 155.573 35.7907 155.573 36.36ZM154.215 36.36C154.215 35.5387 154.029 34.89 153.655 34.414C153.291 33.9287 152.792 33.686 152.157 33.686C151.523 33.686 151.019 33.9287 150.645 34.414C150.281 34.89 150.099 35.5387 150.099 36.36C150.099 37.1813 150.281 37.8347 150.645 38.32C151.019 38.796 151.523 39.034 152.157 39.034C152.792 39.034 153.291 38.796 153.655 38.32C154.029 37.8347 154.215 37.1813 154.215 36.36Z" fill="#FAFFE4"/>
<path d="M88.416 99.232C88.416 100.384 88.176 101.504 87.696 102.592C87.248 103.648 86.64 104.704 85.872 105.76C85.104 106.784 84.24 107.808 83.28 108.832C82.32 109.824 81.36 110.8 80.4 111.76C79.856 112.304 79.216 112.944 78.48 113.68C77.776 114.416 77.104 115.184 76.464 115.984C75.824 116.784 75.28 117.552 74.832 118.288C74.416 119.024 74.208 119.664 74.208 120.208H89.52V124H69.36C69.328 123.808 69.312 123.616 69.312 123.424C69.312 123.232 69.312 123.056 69.312 122.896C69.312 121.392 69.552 120 70.032 118.72C70.544 117.408 71.2 116.176 72 115.024C72.8 113.872 73.696 112.784 74.688 111.76C75.68 110.736 76.656 109.744 77.616 108.784C78.416 108.016 79.168 107.264 79.872 106.528C80.608 105.76 81.248 105.008 81.792 104.272C82.368 103.504 82.816 102.72 83.136 101.92C83.488 101.12 83.664 100.272 83.664 99.376C83.664 98.416 83.504 97.6 83.184 96.928C82.896 96.256 82.496 95.696 81.984 95.248C81.472 94.8 80.864 94.48 80.16 94.288C79.488 94.064 78.768 93.952 78 93.952C77.072 93.952 76.224 94.08 75.456 94.336C74.688 94.592 74 94.896 73.392 95.248C72.784 95.568 72.272 95.92 71.856 96.304C71.44 96.656 71.12 96.928 70.896 97.12L68.688 93.952C68.976 93.632 69.408 93.248 69.984 92.8C70.56 92.32 71.248 91.872 72.048 91.456C72.848 91.04 73.744 90.688 74.736 90.4C75.728 90.112 76.8 89.968 77.952 89.968C81.44 89.968 84.048 90.784 85.776 92.416C87.536 94.016 88.416 96.288 88.416 99.232ZM101.83 103.552C106.662 103.744 110.198 104.8 112.438 106.72C114.71 108.64 115.846 111.248 115.846 114.544C115.846 116.016 115.59 117.376 115.078 118.624C114.598 119.872 113.846 120.944 112.822 121.84C111.83 122.736 110.566 123.44 109.03 123.952C107.494 124.464 105.67 124.72 103.558 124.72C102.726 124.72 101.878 124.656 101.014 124.528C100.15 124.4 99.3498 124.24 98.6137 124.048C97.8778 123.856 97.2218 123.664 96.6458 123.472C96.0698 123.28 95.6538 123.12 95.3978 122.992L96.2618 119.104C96.8058 119.36 97.6858 119.696 98.9018 120.112C100.15 120.528 101.67 120.736 103.462 120.736C104.902 120.736 106.102 120.576 107.062 120.256C108.054 119.936 108.854 119.504 109.462 118.96C110.07 118.416 110.502 117.792 110.758 117.088C111.046 116.352 111.19 115.584 111.19 114.784C111.19 113.568 110.982 112.496 110.566 111.568C110.15 110.608 109.414 109.808 108.358 109.168C107.302 108.528 105.894 108.048 104.134 107.728C102.374 107.376 100.15 107.2 97.4618 107.2C97.6538 105.632 97.7978 104.16 97.8938 102.784C98.0218 101.408 98.1338 100.064 98.2298 98.752C98.3258 97.44 98.4058 96.144 98.4698 94.864C98.5338 93.552 98.5978 92.176 98.6618 90.736H114.694V94.528H102.55C102.518 95.008 102.47 95.664 102.406 96.496C102.342 97.296 102.278 98.144 102.214 99.04C102.15 99.904 102.086 100.752 102.022 101.584C101.958 102.416 101.894 103.072 101.83 103.552ZM127.676 121.408C127.676 122.272 127.388 123.024 126.812 123.664C126.236 124.304 125.452 124.624 124.46 124.624C123.468 124.624 122.684 124.304 122.108 123.664C121.532 123.024 121.244 122.272 121.244 121.408C121.244 120.544 121.532 119.792 122.108 119.152C122.684 118.512 123.468 118.192 124.46 118.192C125.452 118.192 126.236 118.512 126.812 119.152C127.388 119.792 127.676 120.544 127.676 121.408ZM127.676 102.256C127.676 103.12 127.388 103.872 126.812 104.512C126.236 105.152 125.452 105.472 124.46 105.472C123.468 105.472 122.684 105.152 122.108 104.512C121.532 103.872 121.244 103.12 121.244 102.256C121.244 101.392 121.532 100.64 122.108 100C122.684 99.36 123.468 99.04 124.46 99.04C125.452 99.04 126.236 99.36 126.812 100C127.388 100.64 127.676 101.392 127.676 102.256ZM131.952 107.344C131.952 101.776 132.928 97.488 134.88 94.48C136.864 91.472 139.6 89.968 143.088 89.968C146.576 89.968 149.296 91.472 151.248 94.48C153.232 97.488 154.224 101.776 154.224 107.344C154.224 112.912 153.232 117.2 151.248 120.208C149.296 123.216 146.576 124.72 143.088 124.72C139.6 124.72 136.864 123.216 134.88 120.208C132.928 117.2 131.952 112.912 131.952 107.344ZM149.52 107.344C149.52 105.52 149.408 103.792 149.184 102.16C148.992 100.528 148.64 99.104 148.128 97.888C147.648 96.672 146.992 95.712 146.16 95.008C145.328 94.272 144.304 93.904 143.088 93.904C141.872 93.904 140.848 94.272 140.016 95.008C139.184 95.712 138.512 96.672 138 97.888C137.52 99.104 137.168 100.528 136.944 102.16C136.752 103.792 136.656 105.52 136.656 107.344C136.656 109.168 136.752 110.896 136.944 112.528C137.168 114.16 137.52 115.584 138 116.8C138.512 118.016 139.184 118.992 140.016 119.728C140.848 120.432 141.872 120.784 143.088 120.784C144.304 120.784 145.328 120.432 146.16 119.728C146.992 118.992 147.648 118.016 148.128 116.8C148.64 115.584 148.992 114.16 149.184 112.528C149.408 110.896 149.52 109.168 149.52 107.344ZM158.23 107.344C158.23 101.776 159.206 97.488 161.158 94.48C163.142 91.472 165.878 89.968 169.366 89.968C172.854 89.968 175.574 91.472 177.526 94.48C179.51 97.488 180.502 101.776 180.502 107.344C180.502 112.912 179.51 117.2 177.526 120.208C175.574 123.216 172.854 124.72 169.366 124.72C165.878 124.72 163.142 123.216 161.158 120.208C159.206 117.2 158.23 112.912 158.23 107.344ZM175.798 107.344C175.798 105.52 175.686 103.792 175.462 102.16C175.27 100.528 174.918 99.104 174.406 97.888C173.926 96.672 173.27 95.712 172.438 95.008C171.606 94.272 170.582 93.904 169.366 93.904C168.15 93.904 167.126 94.272 166.294 95.008C165.462 95.712 164.79 96.672 164.278 97.888C163.798 99.104 163.446 100.528 163.222 102.16C163.03 103.792 162.934 105.52 162.934 107.344C162.934 109.168 163.03 110.896 163.222 112.528C163.446 114.16 163.798 115.584 164.278 116.8C164.79 118.016 165.462 118.992 166.294 119.728C167.126 120.432 168.15 120.784 169.366 120.784C170.582 120.784 171.606 120.432 172.438 119.728C173.27 118.992 173.926 118.016 174.406 116.8C174.918 115.584 175.27 114.16 175.462 112.528C175.686 110.896 175.798 109.168 175.798 107.344Z" fill="black"/>
<rect x="53" y="145" width="143" height="42" rx="9" fill="#CF2500" stroke="#CF2500" stroke-width="2"/>
<path d="M96.928 173.344C99.36 173.344 100.576 172.512 100.576 170.848C100.576 170.336 100.464 169.904 100.24 169.552C100.032 169.184 99.744 168.872 99.376 168.616C99.008 168.344 98.584 168.112 98.104 167.92C97.64 167.728 97.144 167.536 96.616 167.344C96.008 167.136 95.432 166.904 94.888 166.648C94.344 166.376 93.872 166.064 93.472 165.712C93.072 165.344 92.752 164.912 92.512 164.416C92.288 163.92 92.176 163.32 92.176 162.616C92.176 161.16 92.672 160.024 93.664 159.208C94.656 158.392 96.024 157.984 97.768 157.984C98.776 157.984 99.688 158.096 100.504 158.32C101.336 158.528 101.944 158.76 102.328 159.016L101.584 160.912C101.248 160.704 100.744 160.504 100.072 160.312C99.416 160.104 98.648 160 97.768 160C97.32 160 96.904 160.048 96.52 160.144C96.136 160.24 95.8 160.384 95.512 160.576C95.224 160.768 94.992 161.016 94.816 161.32C94.656 161.608 94.576 161.952 94.576 162.352C94.576 162.8 94.664 163.176 94.84 163.48C95.016 163.784 95.264 164.056 95.584 164.296C95.904 164.52 96.272 164.728 96.688 164.92C97.12 165.112 97.592 165.304 98.104 165.496C98.824 165.784 99.48 166.072 100.072 166.36C100.68 166.648 101.2 166.992 101.632 167.392C102.08 167.792 102.424 168.272 102.664 168.832C102.904 169.376 103.024 170.04 103.024 170.824C103.024 172.28 102.488 173.4 101.416 174.184C100.36 174.968 98.864 175.36 96.928 175.36C96.272 175.36 95.664 175.312 95.104 175.216C94.56 175.136 94.072 175.04 93.64 174.928C93.208 174.8 92.832 174.672 92.512 174.544C92.208 174.4 91.968 174.28 91.792 174.184L92.488 172.264C92.856 172.472 93.416 172.704 94.168 172.96C94.92 173.216 95.84 173.344 96.928 173.344ZM116.541 158.368V160.384H111.309V175H108.981V160.384H103.749V158.368H116.541ZM128.157 175C127.885 174.28 127.629 173.576 127.389 172.888C127.149 172.184 126.901 171.472 126.645 170.752H119.109L117.597 175H115.173C115.813 173.24 116.413 171.616 116.973 170.128C117.533 168.624 118.077 167.2 118.605 165.856C119.149 164.512 119.685 163.232 120.213 162.016C120.741 160.784 121.293 159.568 121.869 158.368H124.005C124.581 159.568 125.133 160.784 125.661 162.016C126.189 163.232 126.717 164.512 127.245 165.856C127.789 167.2 128.341 168.624 128.901 170.128C129.461 171.616 130.061 173.24 130.701 175H128.157ZM125.973 168.832C125.461 167.44 124.949 166.096 124.437 164.8C123.941 163.488 123.421 162.232 122.877 161.032C122.317 162.232 121.781 163.488 121.269 164.8C120.773 166.096 120.277 167.44 119.781 168.832H125.973ZM140.687 168.04C140.943 168.36 141.263 168.784 141.647 169.312C142.047 169.824 142.455 170.4 142.871 171.04C143.287 171.664 143.695 172.32 144.095 173.008C144.511 173.696 144.863 174.36 145.151 175H142.607C142.287 174.392 141.935 173.776 141.551 173.152C141.183 172.528 140.807 171.936 140.423 171.376C140.039 170.8 139.655 170.264 139.271 169.768C138.903 169.272 138.567 168.84 138.263 168.472C138.055 168.488 137.839 168.496 137.615 168.496C137.407 168.496 137.191 168.496 136.967 168.496H134.879V175H132.551V158.608C133.207 158.448 133.935 158.344 134.735 158.296C135.551 158.232 136.295 158.2 136.967 158.2C139.303 158.2 141.079 158.64 142.295 159.52C143.527 160.4 144.143 161.712 144.143 163.456C144.143 164.56 143.847 165.504 143.255 166.288C142.679 167.072 141.823 167.656 140.687 168.04ZM137.159 160.24C136.167 160.24 135.407 160.264 134.879 160.312V166.576H136.535C137.335 166.576 138.055 166.536 138.695 166.456C139.335 166.376 139.871 166.224 140.303 166C140.751 165.776 141.095 165.464 141.335 165.064C141.575 164.648 141.695 164.104 141.695 163.432C141.695 162.808 141.575 162.288 141.335 161.872C141.095 161.456 140.767 161.128 140.351 160.888C139.951 160.648 139.471 160.48 138.911 160.384C138.367 160.288 137.783 160.24 137.159 160.24ZM158.349 158.368V160.384H153.117V175H150.789V160.384H145.557V158.368H158.349Z" fill="#FCFCFC"/>
</svg>
