<svg width="249" height="202" viewBox="0 0 249 202" fill="none" xmlns="http://www.w3.org/2000/svg">
<rect y="48" width="249" height="154" rx="74" fill="#CF2500" fill-opacity="0.1"/>
<path d="M178.906 28.911C176.961 33.4632 173.885 38.8949 166.602 42.8608C136.856 59.0539 97.7106 53.4146 80.3704 42.8608C73.501 38.6314 70.0663 33.4632 68.1267 28.911C64.9092 21.3942 66.2982 15.1752 66.2982 15.1752C66.2982 15.1752 77.8247 14.0948 90.7351 17.0923C95.488 18.1822 99.9551 19.7432 103.979 21.7203C106.419 10.623 117.778 3.21489 121.935 0.830074L123.486 0L125.037 0.830074C129.194 3.21489 140.554 10.623 142.993 21.7203C147.017 19.7434 151.484 18.1825 156.237 17.0923C169.153 14.0948 180.679 15.1785 180.679 15.1785C180.679 15.1785 182.119 21.3942 178.901 28.911H178.906Z" fill="#B1CC33" fill-opacity="0.8"/>
</svg>
